Patient4_TMGait_0pt4_03_left_06_GRF.mot
version=1
nRows=46
nColumns=19
inDegrees=no
endheader
time	F1x	F1y	F1z	M1x	M1y	M1z	F2x	F2y	F2z	M2x	M2y	M2z	EC1x	EC1y	EC1z	EC2x	EC2y	EC2z
7.43	-9.852	6.5286	-9.5211	-0.25104	5.0425	8.2651	-32.2402	746.1634	-76.5084	262.2429	89.8854	792.9596	-0.0592	0.0182	-0.0073	-0.0462	0.0165	0.9585
7.4431	-6.6077	4.8083	-6.3648	-0.33139	3.3116	6.0148	-28.9156	732.6815	-74.1825	257.2609	86.7989	779.6403	-0.0592	0.0182	-0.0073	-0.0462	0.0165	0.9585
7.4563	-3.8635	3.4186	-3.6759	-0.42541	1.8319	4.1985	-25.6177	720.6994	-71.8557	252.77	83.4994	766.9372	-0.0592	0.0182	-0.0073	-0.0462	0.0165	0.9585
7.4694	-1.7812	2.4143	-1.6078	-0.51893	0.6835	2.8791	-22.5037	711.9518	-69.7665	249.4048	80.2795	756.5788	-0.0592	0.0182	-0.0073	-0.0462	0.0165	0.9585
7.4826	-0.34893	1.7679	-0.16603	-0.60292	-0.12696	2.0122	-19.6319	707.6435	-68.0807	247.6163	77.3654	749.876	-0.0592	0.0182	-0.0073	-0.0462	0.0165	0.9585
7.4957	0.50159	1.4093	0.74301	-0.6695	-0.65729	1.5229	-16.9731	708.3338	-66.8873	247.625	74.8892	747.525	-0.0592	0.0182	-0.0073	-0.0462	0.0165	0.9585
7.5089	0.90704	1.2287	1.2398	-0.70776	-0.96887	1.2762	-14.457	713.9378	-66.1762	249.4187	72.8639	749.5812	-0.0592	0.0182	-0.0073	-0.0462	0.0165	0.9585
7.522	0.98176	1.1195	1.4536	-0.70827	-1.1385	1.1466	-12.0044	723.7611	-65.88	252.7657	71.2313	755.4642	-0.0592	0.0182	-0.0073	-0.0462	0.0165	0.9585
7.5351	0.84426	0.96742	1.4915	-0.65571	-1.2223	0.98125	-9.547	736.5951	-65.8747	257.2469	69.8704	764.0501	-0.0592	0.0182	-0.0073	-0.0462	0.0165	0.9585
7.5483	0.58119	0.66751	1.4413	-0.52965	-1.2717	0.65384	-7.0319	750.8219	-66.027	262.2907	68.644	773.7849	-0.0592	0.0182	-0.0073	-0.0462	0.0165	0.9585
7.5614	0.26604	0.11341	1.3561	-0.30513	-1.3107	0.038173	-4.3978	764.5803	-66.196	267.2371	67.4021	782.8532	-0.0592	0.0182	-0.0073	-0.0462	0.0165	0.9585
7.5746	-0.032217	-0.78135	1.271	0.04102	-1.3486	-0.97135	-1.5859	776.0414	-66.2552	271.4359	66.0033	789.4627	-0.0592	0.0182	-0.0073	-0.0462	0.0165	0.9585
7.5877	-0.27165	-2.0692	1.1952	0.52244	-1.3757	-2.429	1.4774	783.6971	-66.0972	274.3498	64.3195	792.1323	-0.0592	0.0182	-0.0073	-0.0462	0.0165	0.9585
7.6009	-0.37913	-3.7345	1.1243	1.1305	-1.3565	-4.3252	4.8404	786.6075	-65.6717	275.6397	62.2864	789.9733	-0.0592	0.0182	-0.0073	-0.0462	0.0165	0.9585
7.614	-0.28812	-5.632	1.0275	1.8161	-1.2292	-6.4905	8.5141	784.5205	-65.0043	275.2062	59.9248	782.8018	-0.0592	0.0182	-0.0073	-0.0462	0.0165	0.9585
7.6271	0.10653	-7.4455	0.86184	2.4703	-0.91108	-8.5692	12.4511	777.9293	-64.199	273.2083	57.3513	771.1913	-0.0592	0.0182	-0.0073	-0.0462	0.0165	0.9585
7.6403	0.90702	-8.6131	0.57332	2.8946	-0.30381	-9.9098	16.5608	767.9654	-63.41	270.0258	54.7484	756.3648	-0.0592	0.0182	-0.0073	-0.0462	0.0165	0.9585
7.6534	2.2338	-8.2618	0.10208	2.7802	0.70279	-9.5073	20.7213	756.0779	-62.7839	266.1543	52.3056	739.8552	-0.0592	0.0182	-0.0073	-0.0462	0.0165	0.9585
7.6666	4.1879	-5.1541	-0.60912	1.6912	2.2109	-5.9349	24.7607	743.6901	-62.4208	262.082	50.1893	723.1789	-0.0592	0.0182	-0.0073	-0.0462	0.0165	0.9585
7.6797	6.7923	2.2784	-1.5964	-0.92477	4.2711	2.625	28.5073	731.8354	-62.3448	258.1635	48.4976	707.4674	-0.0592	0.0182	-0.0073	-0.0462	0.0165	0.9585
7.6929	9.9387	15.8086	-2.8507	-5.692	6.8283	18.217	31.7447	720.8576	-62.4998	254.5141	47.2638	693.191	-0.0592	0.0182	-0.0073	-0.0462	0.0165	0.9585
7.706	13.2687	37.1435	-4.2758	-13.2084	9.6359	42.824	34.235	710.255	-62.7448	250.9493	46.4426	679.9923	-0.0592	0.0182	-0.0073	-0.0462	0.0165	0.9585
7.7191	16.0807	67.3876	-5.6587	-23.8601	12.1897	77.7242	35.7316	698.7287	-62.8681	247.0001	45.9268	666.7406	-0.0592	0.0182	-0.0073	-0.0462	0.0165	0.9585
7.7323	17.1973	106.2946	-6.5935	-37.5536	13.6047	122.6324	36.0052	684.4427	-62.587	242.0105	45.5338	651.7645	-0.0592	0.0182	-0.0073	-0.0462	0.0165	0.9585
7.7454	15.2637	151.5331	-6.505	-53.4526	12.7449	174.8614	34.9226	665.521	-61.5929	235.3191	45.0245	633.2966	-0.0592	0.0182	-0.0073	-0.0462	0.0165	0.9585
7.7586	9.9993	198.7265	-4.6209	-69.9807	8.6283	229.3458	32.5183	640.7018	-59.6392	226.4889	44.1575	610.0876	-0.0592	0.0182	-0.0073	-0.0462	0.0165	0.9585
7.7717	2.9816	243.3184	-0.35449	-85.5037	1.215	280.6885	29.0668	609.8641	-56.657	215.4952	42.7716	581.8574	-0.0592	0.0182	-0.0073	-0.0462	0.0165	0.9585
7.7849	-4.1506	283.017	5.5323	-99.2512	-8.028	325.9426	25.0284	574.18	-52.8231	202.769	40.859	549.4703	-0.0592	0.0182	-0.0073	-0.0462	0.0165	0.9585
7.798	-10.4542	318.266	12.4987	-111.411	-18.0971	365.4451	21.005	535.5438	-48.5298	188.9989	38.5502	514.4248	-0.0592	0.0182	-0.0073	-0.0462	0.0165	0.9585
7.8111	-15.5585	350.9398	19.6388	-122.6975	-27.8587	401.3117	17.5461	495.8597	-44.1331	174.8794	35.9521	478.2476	-0.0592	0.0182	-0.0073	-0.0462	0.0165	0.9585
7.8243	-19.4399	382.8953	26.489	-133.7956	-36.7642	435.7336	14.994	456.3637	-39.8602	160.87	33.1267	441.9057	-0.0592	0.0182	-0.0073	-0.0462	0.0165	0.9585
7.8374	-22.1489	415.2494	32.4471	-145.1283	-44.198	469.9492	13.3908	417.5196	-35.7772	147.1445	30.0964	405.7483	-0.0592	0.0182	-0.0073	-0.0462	0.0165	0.9585
7.8506	-23.7841	448.244	37.3955	-156.777	-50.054	504.2771	12.5342	379.1931	-31.856	133.6541	26.8866	369.6479	-0.0592	0.0182	-0.0073	-0.0462	0.0165	0.9585
7.8637	-24.3632	481.5803	41.2023	-168.6273	-54.2293	538.3773	12.0838	340.9849	-28.0487	120.2456	23.5596	333.272	-0.0592	0.0182	-0.0073	-0.0462	0.0165	0.9585
7.8769	-23.977	514.8746	44.1987	-180.5015	-57.1126	571.9155	11.6432	302.5586	-24.3664	106.7769	20.2578	296.3741	-0.0592	0.0182	-0.0073	-0.0462	0.0165	0.9585
7.89	-22.6751	547.8039	46.6106	-192.2524	-58.9997	604.5756	10.8642	263.8697	-20.8516	93.2079	17.152	258.987	-0.0592	0.0182	-0.0073	-0.0462	0.0165	0.9585
7.9031	-20.6599	580.1399	48.915	-203.7566	-60.4808	636.2142	9.4732	225.2908	-17.5601	79.6538	14.4057	221.5501	-0.0592	0.0182	-0.0073	-0.0462	0.0165	0.9585
7.9163	-18.2183	611.7277	51.3407	-214.9369	-61.9285	666.726	7.3855	187.6529	-14.5295	66.4008	12.1097	184.9103	-0.0592	0.0182	-0.0073	-0.0462	0.0165	0.9585
7.9294	-15.6547	642.4857	54.1303	-225.7469	-63.7111	696.1166	4.7269	152.108	-11.775	53.8539	10.2626	150.2179	-0.0592	0.0182	-0.0073	-0.0462	0.0165	0.9585
7.9426	-13.1828	672.3154	57.1346	-236.1551	-65.7626	724.3556	1.8277	119.7794	-9.3045	42.4161	8.7786	118.5741	-0.0592	0.0182	-0.0073	-0.0462	0.0165	0.9585
7.9557	-10.884	700.8594	60.208	-246.047	-67.953	751.1171	-0.91936	91.456	-7.1462	32.3764	7.5583	90.7514	-0.0592	0.0182	-0.0073	-0.0462	0.0165	0.9585
7.9689	-8.8366	727.4047	62.9884	-255.1997	-69.9291	775.6837	-3.1973	67.4999	-5.3162	23.8719	6.5098	67.1224	-0.0592	0.0182	-0.0073	-0.0462	0.0165	0.9585
7.982	-7.0647	750.9611	65.3021	-263.2923	-71.5029	797.0388	-4.8119	47.8299	-3.8132	16.8873	5.5631	47.6342	-0.0592	0.0182	-0.0073	-0.0462	0.0165	0.9585
7.9951	-5.5357	770.5112	66.9704	-269.9904	-72.4732	814.1263	-5.7114	32.13	-2.609	11.3184	4.6668	32.0263	-0.0592	0.0182	-0.0073	-0.0462	0.0165	0.9585
8.0083	-4.1429	785.1566	68.0325	-274.9923	-72.837	826.0136	-5.8717	19.9664	-1.6772	7.0147	3.7864	19.8974	-0.0592	0.0182	-0.0073	-0.0462	0.0165	0.9585
8.0214	-2.7593	794.3287	68.4934	-278.1113	-72.5595	832.1002	-5.3709	10.9123	-0.98769	3.8206	2.9169	10.8576	-0.0592	0.0182	-0.0073	-0.0462	0.0165	0.9585
